<svg width="56" height="56" xmlns="http://www.w3.org/2000/svg"><g fill="none" fill-rule="evenodd"><path d="M35 31a7 7 0 1114 0 7 7 0 01-14 0zm12-13a3 3 0 116 0 3 3 0 01-6 0zM33 49a3 3 0 116 0 3 3 0 01-6 0zM4 15a3 3 0 116 0 3 3 0 01-6 0zm37-8.5a2.5 2.5 0 115 0 2.5 2.5 0 01-5 0zM10 14l4.029-.576M19.008 26.016L21 19M29.019 34.001l5.967-1.948M36.997 46.003l2.977-8.02M46.05 24.031L48 21M28.787 18.012l7.248 8.009" stroke="#79B8FF" stroke-width="2" stroke-linecap="round" stroke-linejoin="round"/><path d="M43.62 29.004c-1.157 0-1.437.676-1.62 1.173-.19-.498-.494-1.167-1.629-1.167-.909 0-1.355.777-1.371 1.632-.022 1.145 1.309 2.365 3 3.358 1.669-.983 3-2.23 3-3.358 0-.89-.54-1.638-1.38-1.638z" fill="#2088FF"/><path stroke="#79B8FF" stroke-width="2" stroke-linecap="round" stroke-linejoin="round" d="M48.043 15.003L45 9"/><path d="M21 12a3 3 0 116 0 3 3 0 01-6 0zM27 12h3M18 12h3M21 43c-.267-1.727-1.973-3-4-3-2.08 0-3.787 1.318-4 3m4-9a3 3 0 100 6 3 3 0 000-6z" stroke="#2088FF" stroke-width="2" stroke-linecap="round" stroke-linejoin="round"/><path d="M17 30a9 9 0 110 18 9 9 0 110-18z" stroke="#2088FF" stroke-width="2" stroke-linecap="round" stroke-linejoin="round"/></g></svg>