<svg width="56" height="56" xmlns="http://www.w3.org/2000/svg"><g fill="none" fill-rule="evenodd"><path d="M17.135 8.988l-3.303.669a2 2 0 00-1.586 2.223l4.708 35.392a1.498 1.498 0 01-1.162 1.66 1.523 1.523 0 01-1.775-1.01L4.951 20.497a2 2 0 011.215-2.507l2.946-1.072" stroke="#79B8FF" stroke-width="2" stroke-linecap="round" stroke-linejoin="round"/><path d="M36.8 50H23a2 2 0 01-2-2V35.093m0-18.99V8a2 2 0 012-2h26a2 2 0 012 2v40.016a2 2 0 01-2 2H35.83" stroke="#79B8FF" stroke-width="2" stroke-linecap="round"/><path d="M35 22v4.092c0 1.63-.228 3.628-1.848 5.547-2.25 2.399-4.984 3.36-5.15 3.361-.166.002-3.076-1.07-5.141-3.36C21.279 29.885 21 27.716 21 26.091V22a2 2 0 012-2h10a2 2 0 012 2zM27.951 27.02v-3" stroke="#2088FF" stroke-width="2" stroke-linecap="round" stroke-linejoin="round"/><path d="M27.95 29.02a1 1 0 110 2 1 1 0 010-2z" fill="#2088FF"/><path stroke="#2088FF" stroke-width="2" stroke-linecap="round" stroke-linejoin="round" d="M47 35.018h-9M28 40.5h-3"/><path stroke="#79B8FF" stroke-width="2" stroke-linecap="round" stroke-linejoin="round" d="M47 40.5H33M33 46.021h-8"/><path stroke="#2088FF" stroke-width="2" stroke-linecap="round" stroke-linejoin="round" d="M47 46.016h-9M31.059 10.025h-6"/><path stroke="#79B8FF" stroke-width="2" stroke-linecap="round" stroke-linejoin="round" d="M47.059 10.025h-11"/><path stroke="#2088FF" stroke-width="2" stroke-linecap="round" stroke-linejoin="round" d="M47 15.018H33"/><path stroke="#79B8FF" stroke-width="2" stroke-linecap="round" stroke-linejoin="round" d="M28 15.018h-3"/><path stroke="#2088FF" stroke-width="2" stroke-linecap="round" stroke-linejoin="round" d="M47 24.992h-8"/><path stroke="#79B8FF" stroke-width="2" stroke-linecap="round" stroke-linejoin="round" d="M47 30.015h-8M47 20.024h-9"/></g></svg>