<svg width="56" height="56" xmlns="http://www.w3.org/2000/svg"><g stroke-width="2" fill="none" fill-rule="evenodd"><path stroke="#79B8FF" stroke-linecap="round" stroke-linejoin="round" d="M26.022 5.014h6M26.012 53.005h6M27.003 47.003h12M44.01 20.005h5M19.01 11.003h12"/><path stroke="#2088FF" stroke-linecap="round" stroke-linejoin="round" d="M38.005 11.008h6M41 14.013v-6M14.007 47.003h6M17.002 50.004v-6"/><path d="M29.015 5.01l-5.003 5.992 5.003-5.992zM33.015 47.01l-5.003 5.992 5.003-5.992z" stroke="#79B8FF"/><path stroke="#2088FF" stroke-linecap="round" stroke-linejoin="round" d="M8.01 19.002h6"/><path stroke="#79B8FF" stroke-linecap="round" stroke-linejoin="round" d="M47.011 29h6"/><path stroke="#2088FF" stroke-linecap="round" stroke-linejoin="round" d="M44.012 39.003h6"/><g stroke="#79B8FF"><path d="M5.36 29c4.353 0 6.4 4.472 6.4 8"/><path stroke-linecap="round" stroke-linejoin="round" d="M13.99 37.995h-5M10.989 29h-6"/></g><path d="M24.503 22c1.109 0 2.007.895 2.007 2 0 1.104-.898 2-2.007 2a2.004 2.004 0 01-2.008-2c0-1.105.9-2 2.008-2zM24.5 32a2 2 0 110 4 2 2 0 010-4zm9.5 0a2 2 0 110 4 2 2 0 010-4z" stroke="#2088FF" stroke-linecap="round" stroke-linejoin="round"/><path stroke="#2088FF" d="M24.5 26.004v6.001"/><path d="M31.076 23.988l1.027-.023a1.998 1.998 0 011.932 2.01L34 31" stroke="#2088FF" stroke-linecap="round" stroke-linejoin="round"/><path stroke="#2088FF" stroke-linecap="round" stroke-linejoin="round" d="M31.588 26.222l-2.194-2.046 2.046-2.194"/><path d="M29.023 43c7.732 0 14-6.268 14-14s-6.268-14-14-14-14 6.268-14 14 6.268 14 14 14z" stroke="#2088FF"/></g></svg>