<svg width="56" height="56" xmlns="http://www.w3.org/2000/svg"><g transform="translate(3 4)" fill="none" fill-rule="evenodd"><path d="M10 37.5l.049.073a2 2 0 002.506.705l24.391-11.324a2 2 0 00.854-2.874l-2.668-4.27a2 2 0 00-2.865-.562L10.463 34.947A1.869 1.869 0 0010 37.5zM33.028 28.592l-4.033-6.58" stroke="#2088FF" stroke-width="2" stroke-linecap="round" stroke-linejoin="round"/><path stroke="#2088FF" stroke-width="2" stroke-linejoin="round" d="M15.52 37.004l-2.499-3.979"/><path stroke="#2088FF" stroke-width="2" stroke-linecap="round" stroke-linejoin="round" d="M25.008 48.011l.013-15.002M17.984 47.038l6.996-14.035M32.005 47.029l-6.987-14.016"/><path d="M2.032 17.015A23.999 23.999 0 001 24c0 9.3 5.29 17.365 13.025 21.35m22-.027C43.734 41.33 49 33.28 49 24a24 24 0 00-1.025-6.96M34.022 1.754A23.932 23.932 0 0025 0c-2.429 0-4.774.36-6.983 1.032" stroke="#79B8FF" stroke-width="2" stroke-linecap="round" stroke-linejoin="round"/><path d="M40.64 8.472c-1.102-2.224-.935-4.764 1.382-6.465-.922-.087-2.209.326-3.004.784a6.024 6.024 0 00-2.674 7.229c.94 2.618 3.982 4.864 7.66 3.64 1.292-.429 2.615-1.508 2.996-2.665-1.8.625-5.258-.3-6.36-2.523zM21.013 6.015c-.22-.802-3.018-1.295-4.998-.919M4.998 8.006C2.25 9.22.808 11.146 1.011 12.009" stroke="#2088FF" stroke-width="2" stroke-linecap="round" stroke-linejoin="round"/><circle stroke="#79B8FF" stroke-width="2" cx="11" cy="9" r="6"/><path d="M.994 12.022c.351 1.38 5.069 1.25 10.713-.355 5.644-1.603 9.654-4.273 9.303-5.653" stroke="#2088FF" stroke-width="2" stroke-linecap="round" stroke-linejoin="round"/><path d="M26.978 10.105c.318 1.123.573 1.373 1.71 1.679-1.135.314-1.388.566-1.698 1.69-.318-1.122-.573-1.373-1.711-1.679 1.135-.314 1.39-.566 1.7-1.69" fill="#79B8FF"/><path d="M26.978 10.105c.318 1.123.573 1.373 1.71 1.679-1.135.314-1.388.566-1.698 1.69-.318-1.122-.573-1.373-1.711-1.679 1.135-.314 1.39-.566 1.7-1.69z" stroke="#79B8FF" stroke-width="2" stroke-linecap="round" stroke-linejoin="round"/><path d="M9.929 22.737c.317 1.121.573 1.372 1.71 1.678-1.135.314-1.389.566-1.699 1.69-.318-1.121-.573-1.372-1.71-1.679 1.134-.313 1.389-.566 1.699-1.69" fill="#79B8FF"/><path d="M9.929 22.737c.317 1.121.573 1.372 1.71 1.678-1.135.314-1.389.566-1.699 1.69-.318-1.121-.573-1.372-1.71-1.679 1.134-.313 1.389-.566 1.699-1.69z" stroke="#79B8FF" stroke-width="2" stroke-linecap="round" stroke-linejoin="round"/><path d="M38.912 33.684c.318 1.122.573 1.373 1.711 1.679-1.136.313-1.39.565-1.7 1.69-.317-1.123-.573-1.372-1.71-1.68 1.136-.313 1.389-.565 1.7-1.689" fill="#79B8FF"/><path d="M38.912 33.684c.318 1.122.573 1.373 1.711 1.679-1.136.313-1.39.565-1.7 1.69-.317-1.123-.573-1.372-1.71-1.68 1.136-.313 1.389-.565 1.7-1.689z" stroke="#79B8FF" stroke-width="2" stroke-linecap="round" stroke-linejoin="round"/></g></svg>