<svg width="36" height="34" viewBox="0 0 36 34" fill="none" xmlns="http://www.w3.org/2000/svg">
<path d="M18 0C15.6362 0 13.2956 0.450635 11.1117 1.32618C8.92784 2.20172 6.94353 3.48502 5.27208 5.1028C1.89642 8.37007 0 12.8014 0 17.4221C0 25.1226 5.166 31.6559 12.312 33.973C13.212 34.1124 13.5 33.5723 13.5 33.1019V30.1576C8.514 31.2029 7.452 27.823 7.452 27.823C6.624 25.8021 5.454 25.262 5.454 25.262C3.816 24.1818 5.58 24.2167 5.58 24.2167C7.38 24.3386 8.334 26.0111 8.334 26.0111C9.9 28.6593 12.546 27.8753 13.572 27.4572C13.734 26.3247 14.202 25.5582 14.706 25.1226C10.71 24.6871 6.516 23.1888 6.516 16.551C6.516 14.6171 7.2 13.0665 8.37 11.8296C8.19 11.394 7.56 9.58213 8.55 7.23015C8.55 7.23015 10.062 6.75976 13.5 9.0072C14.922 8.62392 16.47 8.43228 18 8.43228C19.53 8.43228 21.078 8.62392 22.5 9.0072C25.938 6.75976 27.45 7.23015 27.45 7.23015C28.44 9.58213 27.81 11.394 27.63 11.8296C28.8 13.0665 29.484 14.6171 29.484 16.551C29.484 23.2062 25.272 24.6696 21.258 25.1052C21.906 25.6453 22.5 26.708 22.5 28.3283V33.1019C22.5 33.5723 22.788 34.1298 23.706 33.973C30.852 31.6385 36 25.1226 36 17.4221C36 15.1342 35.5344 12.8687 34.6298 10.7549C33.7252 8.64118 32.3994 6.72059 30.7279 5.1028C29.0565 3.48502 27.0722 2.20172 24.8883 1.32618C22.7044 0.450635 20.3638 0 18 0V0Z" fill="white"/>
</svg>
